<?xml version="1.0" encoding="UTF-8"?>
<svg id="Layer_1" data-name="Layer 1" xmlns="http://www.w3.org/2000/svg" viewBox="0 0 1470.71 993.64">
  <defs>
    <style>
      .cls-1, .cls-2 {
        fill: #1d263c;
      }

      .cls-2 {
        font-family: ProximaNovaCond-Black, 'Proxima Nova Condensed';
        font-size: 217.04px;
        font-weight: 800;
      }
    </style>
  </defs>
  <text class="cls-2" transform="translate(48.07 909.43) scale(.97 1)"><tspan x="0" y="0">SIMPLE THIRDS</tspan></text>
  <g>
    <path class="cls-1" d="M624.21,47.37c-1.09,5-.9,20.23-2.25,26.94-2.25,11.23-2.3,16.9-7.86,24.7-7.05,9.87-5.72,11.52-6.69,27.57-.73,11.99,7.45,16.66,11.1,26.46,6.38,17.13,19.8,54.05,17.64,70.84-.85,6.58-6.29,13.6-5,19.66,3.03,14.24,42.73,54.73,50.66,72.85,17.01,38.87-35.82,35.35-39.3,45.97-3.57,10.92,5.24,22.35,5.26,31.47,0,6.25-4.84,9.76-5.82,16.65-2.37,16.67,6,30.15,1.07,47.02-10.49,35.86-47.21,23.53-75.48,30.66-11.76,5.13-21.56,34.22-29.64,43.55s-48.23,40.55-59.61,47.96c-13.13,8.56-19.97,16.01-35.3,10-19.04-7.46-100.11-76.15-106.33-94.51-4.84-14.31.17-37.19-1.55-52.97-3.86-35.49-50.05-95-66.52-131.46-20.35-45.06-39.44-113.34-15.43-159.9,11.36-22.02,11.8-7.93,12.8-35.73,1.24-34.36,53.63-66.14,83.5-74.56,52.39-14.78,105.96,2.56,155.99-21.9,15.53-7.59,39.84-37.23,36.31-1.04-1.01,10.4-8.42,13.03-7.28,21.46,14.55-8.64,30.04-9.8,45.51-17.61,23.01-11.61,22.89-3.28,52.07-5.51"/>
    <path class="cls-1" d="M195.41,641.38s97.61-119.12,123.43-119.12,46.9,77.99,70.73,85.32c14.59,4.49,38.83-8.94,59.5-8.98,20.68-.04,23.58,21.33,39.29,15.72,22.4-8,31.43-49.4,55.01-61.75s141.8,88.81,141.8,88.81H195.41Z"/>
  </g>
  <path class="cls-1" d="M1399.98,74.48h-757.81v40.42h456.62v524.36H70.73c-16.71,0-30.31-13.6-30.31-30.31V145.21c0-16.71,13.6-30.31,30.31-30.31h171.77v-40.42H70.73C31.73,74.48,0,106.21,0,145.21v463.74c0,39,31.73,70.73,70.73,70.73h1329.25c39,0,70.73-31.73,70.73-70.73V145.21c0-39-31.73-70.73-70.73-70.73ZM1378.91,639.26h-49.21V114.9h49.21v524.36ZM1189.64,114.9h49.21v524.36h-49.21V114.9Z"/>
</svg>